<svg class="" width="22px" height="16px" viewBox="0 0 22 16" fill="var(--blue-darker)" xmlns="http://www.w3.org/2000/svg" aria-hidden="true" data-v-819de03f=""><!----><!--[--><path d="M3 12.5C3 12.2239 3.22386 12 3.5 12H7.5C7.77614 12 8 12.2239 8 12.5C8 12.7761 7.77614 13 7.5 13H3.5C3.22386 13 3 12.7761 3 12.5Z" fill-rule="evenodd" clip-rule="evenodd"></path><path d="M0 2.5C0 1.11929 1.11929 0 2.5 0H17.5C18.8807 0 20 1.11929 20 2.5V13.5C20 14.8807 18.8807 16 17.5 16H2.5C1.11929 16 0 14.8807 0 13.5V2.5ZM1 7V13.5C1 14.3284 1.67157 15 2.5 15H17.5C18.3284 15 19 14.3284 19 13.5V7H1ZM19 4H1V2.5C1 1.67157 1.67157 1 2.5 1H17.5C18.3284 1 19 1.67157 19 2.5V4Z" fill-rule="evenodd" clip-rule="evenodd"></path><!--]--></svg>