<svg class="" width="80px" height="25px" viewBox="0 0 80 25" fill="var(--blue-darker)" xmlns="http://www.w3.org/2000/svg" aria-hidden="true" data-v-819de03f=""><!----><!--[--><path d="M37.5012 11.0907C37.6941 13.8684 40.036 15.1785 42.9152 14.5566C43.5499 14.4156 43.8527 14.1934 44.3287 14.0442L43.8221 12.8751C43.0955 13.079 42.1562 13.6545 40.8437 13.2366C39.9765 12.948 39.3708 12.2515 39.3401 11.2118L44.5703 11.2018C44.5703 9.0112 43.8527 6.86534 41.107 6.84544C38.4207 6.81891 37.3606 8.89843 37.5012 11.0907ZM14.0186 0.237061C20.0745 0.237061 24.0535 4.71617 22.9068 10.25C21.7602 15.7838 15.917 20.2612 9.86116 20.2612C3.79986 20.2612 -0.180912 15.7838 0.965723 10.25C2.11957 4.71617 7.95731 0.237061 14.0186 0.237061ZM16.9104 1.53552C20.6604 2.74111 22.8347 6.18875 21.991 10.25C21.0084 14.9828 16.2794 18.8798 11.1394 19.3773C10.7301 19.3657 10.7247 19.1534 10.7103 18.8384C10.7301 18.1833 10.7572 17.5233 10.777 16.8683C10.7842 16.7704 10.7446 16.7406 10.6977 16.729C10.1713 16.6809 9.65022 16.5715 9.1364 16.4255C8.58291 16.2265 8.02221 15.9347 7.46332 15.6013C7.20551 15.4869 7.23796 14.9413 7.24517 14.7291C7.29205 14.341 7.60034 13.4372 8.10154 13.3958C8.7019 13.3659 8.98495 13.6561 9.5781 13.9231C10.6184 14.3775 12.0751 14.6445 13.155 14.1768C13.6761 13.8866 13.8005 13.492 13.5571 12.9961C13.1352 12.1836 11.1124 11.5169 10.1965 11.1106C8.00238 10.25 6.77822 8.50541 7.16584 6.42589C7.45611 4.89195 9.01741 3.72947 10.6508 3.5172C10.6508 3.27509 10.6508 3.03132 10.6508 2.78257C8.6352 3.32318 7.10094 4.38948 5.72354 5.63156C3.72594 7.42585 2.55406 9.69277 2.45491 12.5898C2.61356 16.1353 4.61656 17.7041 6.71152 18.8798C3.11476 17.6013 1.05767 14.22 1.88159 10.25C2.8894 5.38944 7.84553 1.4128 13.1496 1.09275C13.3606 1.20717 13.3732 1.22542 13.485 1.48577C13.4381 2.09769 13.3984 2.71126 13.3533 3.32318C14.4008 3.5172 15.3888 3.78917 16.1857 4.41435C16.2127 5.81894 15.0661 6.40765 14.6316 6.19538C14.6514 6.12905 12.9044 5.68628 12.542 5.60834C12.1003 5.54035 11.6658 5.56522 11.2313 5.74764C10.7175 5.97151 10.4741 6.30483 10.7175 6.82554C10.9285 7.21359 11.2782 7.46897 11.6604 7.68621C12.7602 8.23179 13.86 8.78401 14.9615 9.32959C15.9098 9.8188 16.5877 10.4556 17.024 11.225C17.3395 11.9895 17.4116 12.7656 17.2277 13.5533C17.0096 14.1951 16.7464 14.7523 16.3443 15.1038C16.009 15.4554 15.6394 15.729 15.2446 15.923C14.6839 16.195 14.1232 16.4371 13.5444 16.5234C13.5246 16.85 13.512 17.1701 13.4922 17.4984C13.5372 17.5233 13.5841 17.5101 13.6364 17.4984C14.8822 17.1286 15.9765 16.4802 17.0438 15.7705C18.4267 14.6495 19.7175 13.4737 20.3972 11.953C20.8588 11.104 21.2139 10.1654 21.3852 9.06261C21.7602 5.97151 20.5342 3.06283 16.9104 1.53552ZM54.0427 8.38767L54.0625 12.8552C54.104 13.283 54.1634 13.5251 54.2554 13.7009C54.9116 15.0193 57.1833 14.8999 58.5066 14.1105L57.9207 12.9862C57.4862 13.1338 56.9705 13.4687 56.3558 13.2913C55.8095 13.1437 55.8509 12.5484 55.8509 11.963C55.8509 10.7574 55.8509 9.55844 55.8509 8.35119L59.5162 8.35948L62.4657 14.5466C62.5252 14.8153 61.869 15.8849 61.7265 16.0607C60.7079 17.379 59.7578 16.8219 58.9393 16.6544L58.5354 17.9926C60.0913 18.5399 61.7175 18.3359 62.6262 17.4255C63.4339 16.6179 63.899 15.4853 64.4038 14.2216L67.2308 7.03117H65.3521L63.3636 12.5583C63.1616 12.3544 61.6256 8.81552 61.3425 8.21189C60.9603 7.39434 60.405 7.04112 59.2223 7.03117C58.1118 7.02288 56.9904 7.03117 55.8509 7.03117V4.81235C55.4561 4.89526 54.3347 5.20205 54.0427 5.34135V7.00464L52.5877 7.02288L52.5985 8.35119L54.0427 8.38767ZM33.4429 7.03117L33.4627 5.37783C33.4429 4.79411 34.018 3.88369 34.8059 3.54871C35.5324 3.24192 36.9152 3.22368 37.6021 3.63163L37.2704 4.9417C35.2205 4.5238 35.2295 4.87702 35.2295 7.03117H37.4615L36.8864 8.34124L35.2295 8.35119V14.5185C34.896 14.5566 33.735 14.5748 33.4429 14.5002V8.35948L32.5433 8.34124L31.988 7.04112L33.4429 7.03117ZM45.4988 10.9796C45.6106 15.3907 50.8209 15.1503 52.2253 13.9795C52.1749 13.7938 51.8215 12.9679 51.7007 12.8552C50.7398 13.2183 49.8005 13.6263 48.6394 13.0973C46.8329 12.2797 46.9645 9.18698 48.7927 8.41586C49.4976 8.11903 50.4783 8.14556 51.2157 8.4341C51.4771 8.54521 51.6701 8.66627 51.881 8.75084V7.31972C50.8119 6.93002 50.033 6.66966 48.6809 6.94826C46.64 7.38439 45.4591 9.10241 45.4988 10.9796ZM31.503 13.9795L30.9982 12.8834C30.524 13.0044 30.2301 13.2183 29.6154 13.3195C28.009 13.5716 26.5541 12.8834 26.5252 11.2018H31.7464C31.7464 9.5203 31.4219 7.59002 29.3828 7.00464C28.4435 6.72604 27.2932 6.8272 26.5144 7.25504C23.6875 8.81552 23.8281 14.7506 28.786 14.6942C29.7362 14.6859 30.9477 14.4438 31.503 13.9795ZM26.4946 9.99458C26.6262 8.9913 27.039 8.16546 28.2019 8.14556C29.3215 8.12732 29.857 8.98301 29.9074 10.0145L26.4946 9.99458ZM39.3203 10.0145C39.4104 9.00125 39.9152 8.15551 41.0457 8.14556C42.1364 8.14556 42.6917 9.01949 42.7025 10.0145H39.3203Z" fill-rule="evenodd" clip-rule="evenodd"></path><!--]--></svg>